<?xml version="1.0" ?><!DOCTYPE svg  PUBLIC '-//W3C//DTD SVG 1.1//EN'  'http://www.w3.org/Graphics/SVG/1.1/DTD/svg11.dtd'><svg enable-background="new 0 0 512 512" id="Layer_1" version="1.1" viewBox="0 0 512 512" xml:space="preserve" xmlns="http://www.w3.org/2000/svg" xmlns:xlink="http://www.w3.org/1999/xlink"><g><path d="M259,507.2C120.4,507.9,6.7,392.7,9.9,252.1c3-134,114.1-245,252.4-243.4c136.6,1.6,249.4,115.4,245.8,256   C504.7,398.1,394.7,507.8,259,507.2z M477.8,258.1C476.9,135,379.3,40.1,263,38C142.8,35.8,40.3,132.6,40.4,258.1   C40.5,381.4,139.1,476,255.2,478C375.2,480.1,476.8,383.5,477.8,258.1z"/><path d="M313.9,200.7c4.5,0,8.5,0,12.4,0c3.1,0,5.8,1.4,5.5,4.5c-0.5,5-1.2,10.3-3.3,14.7c-1,2.1-5.5,3.3-8.5,3.4   c-10.2,0.5-10.2,0.3-12,10.5c-3.3,19-6.6,38-10.1,57c-3.4,19.2-17.7,31.3-38.4,31.9c-18,0.5-36,0.1-54,0.2c-3.8,0-5.1-1.3-3.9-5.2   c1.4-4.6,2.3-9.4,3.3-14.1c0.9-4.5,3.7-6.4,8.1-6.4c12.3,0.1,24.7,0.1,37,0c11.9,0,16.8-4.2,19-16.1c3.3-17.8,6.5-35.7,9.7-53.5   c0.2-1.1,0.1-2.3,0.2-4.2c-5.3,0-10.4-0.2-15.5,0.1c-4,0.2-6.2-1-6.9-5.2c-0.6-4.1-1.7-8.1-2.8-12.1c-1.2-4.1,0.5-5.5,4.4-5.5   c7.2,0.1,14.3-0.1,21.5,0.1c2.9,0.1,3.8-0.9,4.5-3.8c2-8.5,3.5-17.4,7.3-25.3c9.2-19.2,28.1-26.1,46.8-24.6   c3.8,0.3,6.6,2.2,7.6,6.1c0.4,1.6,0.9,3.2,1.2,4.8c2,9.8,0.5,11.6-9.3,11.9c-13.1,0.3-19.5,5.8-21.8,18.6   C315.3,192.4,314.7,196.3,313.9,200.7z"/><path d="M184.2,200.5c17.3,0,34.7,0,52,0c5.1,0,10.1,7.5,7.6,11.9c-0.7,1.2-3.4,1.8-5.1,1.8c-29,0.1-58,0.1-87,0.1   c-1.3,0-2.7-0.1-4,0c-6.4,0.6-9.6,5.7-6.6,11.3c5.3,9.8,10.9,19.5,16.6,29c3.1,5.2,8.4,6.7,14.2,6.7c23,0,46,0,69,0   c8.5,0,9.4,0.7,11.5,9.1c0.7,2.9,1.5,5.8,2,8.7c0.8,4.9-1.5,7.9-6.5,7.9c-29.2,0.1-58.3,0.1-87.5,0c-5.9,0-10.4-3.2-13.3-8.4   c-10.1-17.6-20.3-35.2-30.2-52.9c-7.2-12.7,0-25,14.8-25.2C149.2,200.3,166.7,200.5,184.2,200.5z"/><path d="M193,349.5c0.1-9.8,7.9-17.6,17.8-17.7c10,0,18.2,8.2,18.1,18c-0.1,9.7-8.2,17.6-18,17.6   C200.7,367.5,192.9,359.6,193,349.5z"/><path d="M288,349.9c-0.1,9.9-7.8,17.6-17.8,17.6c-10,0.1-18.3-8.1-18.1-18c0.2-9.7,8.2-17.7,17.9-17.7   C280.1,331.8,288.1,339.8,288,349.9z"/><path d="M303,346.2c0.4-2.4,0.7-4,1-6.3c28.9,1,57.7,2,86.5,3c0,0.2,0,0.4,0,0.6C361.6,344.4,332.6,345.3,303,346.2z"/><path d="M345.2,358.2c-14.3,1-28.6,1.9-43.3,2.9c0-2.1,0-3.8,0-6.2c14.5,0.8,28.8,1.5,43.1,2.3   C345.1,357.6,345.2,357.9,345.2,358.2z"/></g></svg>